 <svg class="footer-badge-svg" viewBox="0 0 360 40" xmlns="http://www.w3.org/2000/svg" aria-label="Klachtenportaal Zorg">
                      <g clip-path="url(#clip0_1417_1276)">
                      <path d="M60.3339 28.1696L56.8795 22.8121L55.5669 24.1806V28.1628H51.8154V10.3181H55.5669V19.8494L59.9608 15.0598H64.4584L59.4219 20.2189L64.6311 28.1696H60.3339Z"></path>
                      <path d="M66.6143 28.1696V10.3181H70.3933V28.1696H66.6143Z"></path>
                      <path d="M81.6542 28.1698V26.7534C81.1529 27.3059 80.5341 27.7416 79.8425 28.0291C79.1508 28.3166 78.4035 28.4487 77.6541 28.4161C75.1601 28.4161 73.1082 26.9997 73.1082 24.4065V24.3586C73.1082 21.4917 75.3051 20.1711 78.4417 20.1711C79.5455 20.1606 80.6425 20.3436 81.6819 20.7117V20.4927C81.6819 18.9532 80.7147 18.0911 78.8355 18.0911C77.5844 18.0864 76.3439 18.3187 75.1808 18.7753L74.2412 15.9358C75.8525 15.206 77.61 14.848 79.3813 14.8889C83.4851 14.8889 85.2882 16.9895 85.2882 20.5406V28.1424L81.6542 28.1698ZM81.7303 22.8875C80.9749 22.5593 80.1578 22.3937 79.3329 22.4017C77.7301 22.4017 76.7422 23.038 76.7422 24.2081V24.256C76.7422 25.2618 77.5781 25.8502 78.8148 25.8502C80.5696 25.8502 81.7579 24.8923 81.7579 23.5512L81.7303 22.8875Z"></path>
                      <path d="M94.7739 28.4639C93.8669 28.4842 92.965 28.3234 92.1221 27.991C91.2792 27.6587 90.5125 27.1616 89.8677 26.5294C89.223 25.8972 88.7134 25.1429 88.3693 24.3115C88.0253 23.4801 87.8538 22.5886 87.8652 21.6901V21.6422C87.8511 20.7369 88.0213 19.838 88.3657 18.9993C88.71 18.1606 89.2215 17.3992 89.8696 16.7606C90.5176 16.122 91.2889 15.6192 92.1375 15.2824C92.9861 14.9455 93.8944 14.7814 94.8085 14.7999C95.8007 14.7435 96.7929 14.9128 97.709 15.2946C98.625 15.6765 99.4407 16.2609 100.094 17.0031L97.793 19.4527C97.4328 19.0033 96.9748 18.6402 96.4533 18.3902C95.9318 18.1403 95.3602 18.0099 94.7808 18.0089C92.9085 18.0089 91.5752 19.6442 91.5752 21.5806V21.6285C91.5752 23.6333 92.8809 25.2481 94.9328 25.2481C95.506 25.2378 96.071 25.111 96.5927 24.8756C97.1144 24.6402 97.5817 24.3012 97.9657 23.8796L100.17 26.0828C99.5154 26.8636 98.6884 27.4846 97.7526 27.8975C96.8168 28.3105 95.7976 28.5043 94.7739 28.4639Z"></path>
                      <path d="M111.003 28.1696V20.8552C111.003 19.0968 110.16 18.1936 108.73 18.1936C107.299 18.1936 106.381 19.0968 106.381 20.8552V28.1696H102.629V10.3181H106.381V16.9209C106.802 16.2798 107.377 15.7519 108.055 15.3842C108.732 15.0165 109.491 14.8205 110.263 14.8135C113.103 14.8135 114.754 16.6746 114.754 19.6852V28.1696H111.003Z"></path>
                      <path d="M122.492 28.3888C120.191 28.3888 118.637 27.4856 118.637 24.4545V18.2416H117.055V15.06H118.637V11.7073H122.388V15.06H125.504V18.2416H122.388V23.8455C122.388 24.7008 122.761 25.1113 123.604 25.1113C124.251 25.1143 124.888 24.9542 125.456 24.646V27.6361C124.559 28.1582 123.532 28.4191 122.492 28.3888Z"></path>
                      <path d="M140.171 22.9148H130.983C131.103 23.6652 131.502 24.3441 132.101 24.8187C132.701 25.2932 133.457 25.5293 134.223 25.4806C134.824 25.4861 135.419 25.3672 135.971 25.1315C136.523 24.8959 137.02 24.5487 137.428 24.1122L139.577 26.0006C138.658 27.0698 137.432 27.8373 136.063 28.2014C134.693 28.5654 133.244 28.5089 131.908 28.0393C130.572 27.5697 129.411 26.7092 128.58 25.5717C127.748 24.4342 127.285 23.0734 127.252 21.6695V21.6216C127.252 17.8789 129.946 14.7793 133.801 14.7793C138.223 14.7793 140.247 18.2004 140.247 21.9021V21.95C140.247 22.3469 140.22 22.5864 140.171 22.9148ZM133.801 17.7967C132.247 17.7967 131.231 18.8983 130.934 20.5884H136.592C136.371 18.9257 135.383 17.7967 133.801 17.7967Z"></path>
                      <path d="M151.412 28.1696V20.8552C151.412 19.0967 150.576 18.1935 149.139 18.1935C147.702 18.1935 146.797 19.0967 146.797 20.8552V28.1696H143.038V15.0598H146.797V16.9209C147.218 16.2807 147.792 15.7534 148.468 15.3858C149.144 15.0181 149.901 14.8216 150.672 14.8135C153.512 14.8135 155.17 16.6746 155.17 19.6852V28.1696H151.412Z"></path>
                      <path d="M166.307 28.4162C165.509 28.4349 164.719 28.2675 163.998 27.9276C163.278 27.5876 162.649 27.0846 162.162 26.4593V32.0836H158.41V15.06H162.162V16.9417C162.618 16.2724 163.237 15.7271 163.961 15.3554C164.685 14.9837 165.491 14.7975 166.307 14.8137C169.395 14.8137 172.338 17.2153 172.338 21.5944V21.6423C172.338 26.0077 169.443 28.4162 166.307 28.4162ZM168.58 21.5739C168.58 19.3912 167.101 17.9543 165.347 17.9543C163.592 17.9543 162.134 19.3912 162.134 21.5739V21.6218C162.134 23.7976 163.592 25.2414 165.347 25.2414C167.101 25.2414 168.58 23.825 168.58 21.6218V21.5739Z"></path>
                      <path d="M181.624 28.4639C180.704 28.494 179.786 28.3416 178.926 28.0155C178.066 27.6895 177.28 27.1964 176.615 26.5652C175.95 25.9341 175.42 25.1777 175.054 24.3405C174.689 23.5032 174.496 22.6021 174.487 21.69V21.6421C174.538 19.7989 175.312 18.0478 176.644 16.7598C177.977 15.4718 179.763 14.748 181.625 14.7417C183.487 14.7355 185.278 15.4473 186.619 16.7264C187.96 18.0055 188.745 19.7514 188.809 21.5942V21.6421C188.802 22.561 188.61 23.4693 188.242 24.3132C187.875 25.1571 187.341 25.9196 186.671 26.5555C186.001 27.1914 185.209 27.688 184.343 28.0157C183.476 28.3435 182.551 28.4959 181.624 28.4639ZM185.078 21.6216C185.097 21.158 185.022 20.6954 184.857 20.261C184.693 19.8266 184.442 19.4291 184.12 19.0919C183.798 18.7547 183.412 18.4846 182.983 18.2975C182.555 18.1103 182.092 18.0098 181.624 18.002C181.155 17.9925 180.689 18.0797 180.255 18.2578C179.821 18.436 179.43 18.7013 179.105 19.037C178.781 19.3727 178.53 19.7715 178.369 20.2081C178.208 20.6448 178.14 21.1097 178.17 21.5737V21.6216C178.151 22.0852 178.226 22.5478 178.391 22.9822C178.556 23.4166 178.806 23.814 179.128 24.1512C179.45 24.4884 179.836 24.7585 180.265 24.9457C180.694 25.1328 181.156 25.2333 181.624 25.2411C182.093 25.2506 182.559 25.1635 182.993 24.9854C183.427 24.8072 183.818 24.5419 184.143 24.2062C184.467 23.8705 184.718 23.4717 184.879 23.035C185.04 22.5984 185.108 22.1334 185.078 21.6695V21.6216Z"></path>
                      <path d="M199.289 18.7068C196.795 18.7068 195.261 20.1984 195.261 23.3322V28.1697H191.51V15.0599H195.261V17.701C196.028 15.8946 197.265 14.7178 199.489 14.8135V18.7068H199.289Z"></path>
                      <path d="M206.301 28.3888C204.008 28.3888 202.453 27.4856 202.453 24.4545V18.2416H200.871V15.06H202.453V11.7073H206.205V15.06H209.321V18.2416H206.205V23.8455C206.205 24.7008 206.578 25.1113 207.414 25.1113C208.059 25.1116 208.694 24.9492 209.258 24.6392V27.6293C208.364 28.1525 207.34 28.4158 206.301 28.3888Z"></path>
                      <path d="M219.843 28.1698V26.7534C219.342 27.3059 218.723 27.7416 218.031 28.0291C217.34 28.3166 216.592 28.4487 215.843 28.4161C213.349 28.4161 211.297 26.9997 211.297 24.4065V24.3586C211.297 21.4917 213.494 20.1711 216.63 20.1711C217.732 20.1598 218.827 20.3428 219.864 20.7117V20.4927C219.864 18.9532 218.903 18.0911 217.024 18.0911C215.773 18.0857 214.532 18.318 213.369 18.7753L212.43 15.9358C214.041 15.206 215.799 14.848 217.57 14.8889C221.667 14.8889 223.47 16.9895 223.47 20.5406V28.1424L219.843 28.1698ZM219.919 22.8875C219.164 22.5593 218.346 22.3937 217.522 22.4017C215.912 22.4017 214.924 23.038 214.924 24.2081V24.256C214.924 25.2618 215.767 25.8502 216.997 25.8502C218.751 25.8502 219.94 24.8923 219.94 23.5512L219.919 22.8875Z"></path>
                      <path d="M234.468 28.1698V26.7534C233.966 27.3052 233.347 27.7404 232.656 28.0278C231.964 28.3152 231.217 28.4478 230.468 28.4161C227.967 28.4161 225.922 26.9997 225.922 24.4065V24.3586C225.922 21.4917 228.119 20.1711 231.255 20.1711C232.357 20.1605 233.452 20.3435 234.489 20.7117V20.4927C234.489 18.9532 233.528 18.0911 231.649 18.0911C230.398 18.0857 229.157 18.318 227.994 18.7753L227.055 15.9358C228.666 15.206 230.424 14.848 232.195 14.8889C236.292 14.8889 238.095 16.9895 238.095 20.5406V28.1424L234.468 28.1698ZM234.537 22.8875C233.784 22.5586 232.969 22.393 232.147 22.4017C230.537 22.4017 229.549 23.038 229.549 24.2081V24.256C229.549 25.2618 230.392 25.8502 231.622 25.8502C233.376 25.8502 234.558 24.8923 234.558 23.5512L234.537 22.8875Z"></path>
                      <path d="M241.509 28.1696V10.3181H245.26V28.1696H241.509Z"></path>
                      <path d="M0.262995 25.3232C-0.648957 16.6814 -0.110082 36.5035 17.2377 34.6972C34.4474 32.9045 30.9585 13.3903 31.8704 22.0321C32.3111 26.1832 31.0687 30.3376 28.4165 33.5815C25.7643 36.8254 21.9197 38.893 17.7283 39.3294C15.6529 39.5455 13.5549 39.3546 11.554 38.7677C9.55307 38.1808 7.68848 37.2093 6.06668 35.9087C2.79131 33.282 0.703666 29.4743 0.262995 25.3232Z"></path>
                      <path d="M15.6969 0.150617C24.4572 -0.307816 4.44261 -0.807297 5.33384 16.4489C6.23888 33.5547 26.1015 31.1256 17.3343 31.5841C15.2503 31.6919 13.1653 31.3922 11.1983 30.7019C9.23123 30.0117 7.42073 28.9445 5.87014 27.5614C4.31956 26.1782 3.05924 24.506 2.16114 22.6405C1.26305 20.7749 0.744772 18.7524 0.6359 16.6884C0.527028 14.6245 0.82969 12.5595 1.52661 10.6114C2.22354 8.66329 3.30108 6.87021 4.6977 5.33453C6.09432 3.79886 7.78268 2.55065 9.66637 1.66119C11.5501 0.771733 13.5922 0.258442 15.6762 0.150617"></path>
                      <path d="M23.6555 39.9315C14.8745 40.0821 34.8615 41.3 34.5575 24.0027C34.2535 6.89699 14.3218 8.60756 23.0959 8.45703C27.3102 8.38354 31.3814 9.97108 34.4138 12.8704C37.4463 15.7698 39.1916 19.7434 39.2658 23.9172C39.34 28.091 37.737 32.123 34.8095 35.1263C31.882 38.1295 27.8698 39.8581 23.6555 39.9315Z"></path>
                      <path d="M24.3467 0.985352C28.561 0.985352 32.6027 2.64338 35.5827 5.59469C38.5626 8.54599 40.2368 12.5488 40.2368 16.7226C40.2368 25.4123 41.7912 5.64495 24.3467 5.64495 M24.346 5.65178C7.07423 5.65178 8.45598 25.4191 8.45598 16.7294C8.45598 12.5557 10.1301 8.55283 13.1101 5.60152C16.09 2.65021 20.1317 0.992188 24.346 0.992188"></path>
                      <path d="M24.0288 20.3763C24.0302 21.1168 23.8097 21.8411 23.3953 22.4575C22.9809 23.0739 22.3912 23.5547 21.7008 23.839C21.0103 24.1233 20.2503 24.1984 19.5168 24.0548C18.7832 23.9111 18.1092 23.5552 17.58 23.032C17.0508 22.5089 16.6902 21.842 16.5438 21.1158C16.3974 20.3896 16.4719 19.6367 16.7577 18.9524C17.0435 18.2681 17.5279 17.6832 18.1495 17.2716C18.7711 16.8601 19.502 16.6404 20.2498 16.6404C21.2508 16.6404 22.211 17.0338 22.9195 17.7342C23.6281 18.4346 24.027 19.3848 24.0288 20.3763Z"></path>
                      <path d="M251.401 32.1656V10.4961H253.474V32.1656H251.401Z"></path>
                      <path d="M259.692 12.6925V10.4961H276.736V12.1314L262.559 29.9214H276.736V32.1656H259.25V30.5235L273.385 12.7335L259.692 12.6925Z"></path>
                      <path d="M290.781 32.5078C284.135 32.5078 279.672 27.3419 279.672 21.3481C279.672 15.3542 284.19 10.1267 290.843 10.1267C297.496 10.1267 301.953 15.2858 301.953 21.2865C301.953 27.2872 297.455 32.5078 290.781 32.5078ZM290.781 12.3778C285.786 12.3778 282.228 16.3395 282.228 21.2728C282.228 26.2061 285.848 30.2362 290.843 30.2362C295.838 30.2362 299.396 26.2813 299.396 21.3412C299.396 16.4011 295.804 12.3778 290.781 12.3778Z"></path>
                      <path d="M322.244 32.1656L315.909 23.7564H309.691V32.1656H307.225V10.4961H316.621C321.457 10.4961 324.517 13.062 324.517 16.9552C324.517 20.5748 322.016 22.6754 318.583 23.2912L325.277 32.1656H322.244ZM316.406 12.7814H309.67V21.5601H316.379C319.66 21.5601 321.995 19.8906 321.995 17.0784C321.995 14.3757 319.937 12.7541 316.406 12.7541V12.7814Z"></path>
                      <path d="M339.916 32.5078C333.049 32.5078 328.807 27.5608 328.807 21.348C328.807 15.3815 333.208 10.1267 339.764 10.1267C342.753 9.99828 345.675 11.0292 347.909 13.0004L346.313 14.8547C344.516 13.1902 342.126 12.2994 339.667 12.3778C334.831 12.3778 331.377 16.4284 331.377 21.2727C331.377 26.466 334.721 30.2977 340.026 30.2977C342.311 30.2893 344.527 29.5287 346.327 28.1355V22.7575H339.681V20.5612H348.704V29.1824C346.283 31.3175 343.157 32.5005 339.916 32.5078Z"></path>
                      <path d="M360 13.7392C360.005 14.2643 359.903 14.7849 359.701 15.2704C359.499 15.7558 359.201 16.1962 358.824 16.5656C358.448 16.9349 358 17.2257 357.508 17.4207C357.015 17.6157 356.489 17.711 355.959 17.7009C355.423 17.723 354.888 17.6376 354.386 17.4497C353.884 17.2618 353.425 16.9753 353.038 16.6074C352.651 16.2396 352.343 15.798 352.132 15.3092C351.922 14.8204 351.813 14.2946 351.813 13.7632C351.813 13.2318 351.922 12.7059 352.132 12.2171C352.343 11.7283 352.651 11.2867 353.038 10.9189C353.425 10.5511 353.884 10.2646 354.386 10.0767C354.888 9.88875 355.423 9.80331 355.959 9.82544C356.485 9.81359 357.009 9.90607 357.499 10.0974C357.988 10.2888 358.435 10.5752 358.811 10.9398C359.188 11.3045 359.487 11.7399 359.691 12.2207C359.895 12.7014 360 13.2177 360 13.7392ZM352.898 13.7392C352.885 14.147 352.955 14.5532 353.105 14.9334C353.254 15.3137 353.479 15.6602 353.767 15.9522C354.055 16.2441 354.399 16.4756 354.779 16.6326C355.159 16.7897 355.567 16.8691 355.979 16.8662C356.817 16.8662 357.62 16.5367 358.212 15.9503C358.804 15.3639 359.137 14.5685 359.137 13.7392C359.137 12.9099 358.804 12.1146 358.212 11.5282C357.62 10.9418 356.817 10.6123 355.979 10.6123C355.568 10.6103 355.16 10.6904 354.78 10.8478C354.4 11.0051 354.057 11.2366 353.769 11.5284C353.481 11.8202 353.256 12.1663 353.107 12.5461C352.957 12.9259 352.886 13.3317 352.898 13.7392ZM355.33 15.7919H354.411V11.8781C354.912 11.7875 355.422 11.7462 355.931 11.755C356.41 11.717 356.89 11.8167 357.313 12.0423C357.437 12.149 357.537 12.2816 357.603 12.4306C357.67 12.5796 357.703 12.7414 357.7 12.9045C357.682 13.1236 357.592 13.3309 357.443 13.4942C357.295 13.6575 357.096 13.7677 356.878 13.8077V13.8555C357.075 13.9351 357.246 14.0662 357.374 14.235C357.502 14.4037 357.581 14.6037 357.603 14.8135C357.644 15.1526 357.739 15.483 357.886 15.7919H356.898C356.751 15.4882 356.646 15.1659 356.587 14.834C356.518 14.4029 356.277 14.2182 355.772 14.2182H355.337L355.33 15.7919ZM355.33 13.5682H355.765C356.27 13.5682 356.684 13.4039 356.684 13.0003C356.684 12.5966 356.415 12.405 355.841 12.405C355.67 12.4019 355.499 12.4157 355.33 12.446V13.5682Z"></path>
                      <path d="M360 23.1816C360.005 23.7066 359.903 24.2273 359.701 24.7127C359.499 25.1982 359.201 25.6386 358.824 26.008C358.448 26.3773 358 26.6681 357.508 26.8631C357.015 27.0581 356.489 27.1534 355.959 27.1433C355.423 27.1654 354.888 27.08 354.386 26.8921C353.884 26.7042 353.425 26.4177 353.038 26.0498C352.651 25.682 352.343 25.2404 352.132 24.7516C351.922 24.2628 351.813 23.7369 351.813 23.2056C351.813 22.6742 351.922 22.1483 352.132 21.6595C352.343 21.1707 352.651 20.7291 353.038 20.3613C353.425 19.9935 353.884 19.707 354.386 19.5191C354.888 19.3312 355.423 19.2457 355.959 19.2678C356.485 19.256 357.009 19.3484 357.499 19.5398C357.988 19.7312 358.435 20.0176 358.811 20.3822C359.188 20.7468 359.487 21.1823 359.691 21.663C359.895 22.1438 360 22.6601 360 23.1816ZM352.898 23.1816C352.885 23.5894 352.955 23.9956 353.105 24.3758C353.254 24.7561 353.479 25.1026 353.767 25.3946C354.055 25.6865 354.399 25.918 354.779 26.075C355.159 26.2321 355.567 26.3115 355.979 26.3085C356.817 26.3085 357.62 25.9791 358.212 25.3927C358.804 24.8063 359.137 24.0109 359.137 23.1816C359.137 22.3523 358.804 21.557 358.212 20.9705C357.62 20.3841 356.817 20.0547 355.979 20.0547C355.568 20.0527 355.16 20.1328 354.78 20.2901C354.4 20.4475 354.057 20.679 353.769 20.9708C353.481 21.2626 353.256 21.6087 353.107 21.9885C352.957 22.3683 352.886 22.7741 352.898 23.1816Z"></path>
                      <path d="M353.824 21.9023C354.095 21.8584 354.37 21.8378 354.646 21.8407C354.927 21.8161 355.21 21.8707 355.461 21.9981C355.562 22.0518 355.646 22.1317 355.705 22.2294C355.763 22.3271 355.794 22.4388 355.793 22.5523C355.791 22.6824 355.749 22.8087 355.67 22.9132C355.592 23.0176 355.483 23.0949 355.357 23.1339C355.512 23.17 355.649 23.2578 355.746 23.3824C355.843 23.507 355.894 23.6609 355.889 23.8181C355.89 23.93 355.864 24.0405 355.815 24.1412C355.766 24.242 355.695 24.3303 355.606 24.3997C355.278 24.6089 354.888 24.7007 354.501 24.6597C354.27 24.6659 354.038 24.6522 353.81 24.6187L353.824 21.9023ZM354.515 22.9423H354.653C354.922 22.9423 355.067 22.8192 355.067 22.6344C355.067 22.4497 354.957 22.3539 354.729 22.3539C354.658 22.3442 354.586 22.3442 354.515 22.3539V22.9423ZM354.515 24.1192C354.576 24.1276 354.639 24.1276 354.701 24.1192C354.922 24.1192 355.122 24.0166 355.122 23.7703C355.122 23.5239 354.922 23.435 354.673 23.435H354.515V24.1192Z"></path>
                      <path d="M356.815 24.639L356.007 21.9021H356.794L357.057 23.0105C357.126 23.3116 357.195 23.6195 357.25 23.9616C357.306 23.6264 357.368 23.2774 357.437 23.0105L357.699 21.9021H358.487L357.658 24.639H356.815Z"></path>
                      </g>
                      <defs>
                      <clipPath id="clip0_1417_1276">
                      <rect width="360" height="40" fill="white"></rect>
                      </clipPath>
                      </defs>
                  </svg>